<svg width="111" height="41" viewBox="0 0 111 41" fill="none" xmlns="http://www.w3.org/2000/svg">
<g clip-path="url(#clip0_47_78)">
<path fill-rule="evenodd" clip-rule="evenodd" d="M24.2409 34.1657L33.3717 18.2589H28.7513V6.83432L19.6204 23.8891H24.2409V34.1657ZM47.123 15.9084C47.7464 15.9084 48.2781 15.6897 48.7181 15.2524C49.1582 14.8151 49.3782 14.2867 49.3782 13.6672C49.3782 13.0477 49.1582 12.5193 48.7181 12.082C48.2781 11.6447 47.7464 11.426 47.123 11.426C46.4996 11.426 45.9679 11.6447 45.5278 12.082C45.0878 12.5193 44.8678 13.0477 44.8678 13.6672C44.8678 14.2867 45.0878 14.8151 45.5278 15.2524C45.9679 15.6897 46.4996 15.9084 47.123 15.9084ZM51.1934 9.62213C52.2935 10.6425 52.8435 11.9908 52.8435 13.6672V35.3137C52.8435 36.334 52.5868 37.2815 52.0734 38.1561C51.5601 39.0308 50.8633 39.7231 49.9832 40.2333C49.1032 40.7435 48.1498 40.9986 47.123 40.9986C46.0962 40.9986 45.152 40.7435 44.2902 40.2333C43.4285 39.7231 42.7409 39.0308 42.2275 38.1561C41.7141 37.2815 41.4575 36.334 41.4575 35.3137V23.8891H37.9921V40.9986H15V4.59314C15 3.35411 15.4584 2.27909 16.3751 1.36804C17.2919 0.456984 18.3736 0.00146484 19.6204 0.00146484H33.3717C34.6185 0.00146484 35.7003 0.456984 36.617 1.36804C37.5338 2.27909 37.9921 3.35411 37.9921 4.59314V20.5H40.2473C41.4941 20.5 42.5759 20.9556 43.4926 21.8666C44.4094 22.7777 44.8678 23.8527 44.8678 25.0917V35.3137C44.8678 35.9696 45.0878 36.5071 45.5278 36.9262C45.9679 37.3453 46.4996 37.5548 47.123 37.5548C47.7464 37.5548 48.2781 37.3453 48.7181 36.9262C49.1582 36.5071 49.3782 35.9696 49.3782 35.3137V18.9148C48.7915 19.1699 48.0397 19.2975 47.123 19.2975C45.5462 19.2975 44.2077 18.7508 43.1076 17.6576C42.0075 16.5643 41.4575 15.2342 41.4575 13.6672C41.4575 12.4646 41.7875 11.3805 42.4476 10.4147C43.1076 9.44902 43.9877 8.74752 45.0878 8.31022L40.2473 3.49989L42.7226 1.14938L51.1934 9.62213ZM67.0893 20.9378V22.6888C67.0893 25.7849 65.6331 27.3329 62.7208 27.3329H60.3656C57.4533 27.3329 55.9971 25.7849 55.9971 22.6888V4.64552C55.9971 1.54947 57.4533 0.00146484 60.3656 0.00146484H62.7208C65.6331 0.00146484 67.0893 1.54947 67.0893 4.64552V7.72887H63.4425V4.91199C63.4425 3.84613 62.8981 3.31321 61.8091 3.31321H61.0874C60.125 3.31321 59.6439 3.84613 59.6439 4.91199V22.4224C59.6439 23.4882 60.125 24.0211 61.0874 24.0211H61.999C62.9614 24.0211 63.4425 23.4882 63.4425 22.4224V20.9378H67.0893ZM78.0674 27.3329V14.9234H73.585V27.3329H69.9383V0.00146484H73.585V11.6116H78.0674V0.00146484H81.7141V27.3329H78.0674ZM85.1329 0.00146484H92.2744C95.0602 0.00146484 96.453 1.56216 96.453 4.68359V11.4213C96.453 13.8068 95.7312 15.3167 94.2877 15.9511L96.8328 27.3329H93.3761L90.9829 16.2937H88.7797V27.3329H85.1329V0.00146484ZM88.7797 13.1723H91.1728C92.2618 13.1723 92.8063 12.5125 92.8063 11.1929V5.29265C92.8063 3.97302 92.2618 3.31321 91.1728 3.31321H88.7797V13.1723ZM105.114 17.3215V14.0098H110.66V27.3329H103.519C100.707 27.3329 99.302 25.7976 99.302 22.7269V4.68359C99.302 1.56216 100.707 0.00146484 103.519 0.00146484H106.026C109.115 0.00146484 110.66 1.58753 110.66 4.75972V7.72887H107.013V5.29265C107.013 3.97302 106.494 3.31321 105.456 3.31321H104.544C103.481 3.31321 102.949 3.97302 102.949 5.29265V22.0417C102.949 23.3613 103.481 24.0211 104.544 24.0211H107.013V17.3215H105.114ZM58.55 36.11V31.5377H59.7816V40.9986H58.55V39.1143L57.2287 34.8055V40.9986H55.9971V31.5377H57.2287L58.55 36.11ZM64.4106 40.9986V31.5377H67.4638V32.6841H65.6422V35.5566H67.2586V36.703H65.6422V39.8522H67.4638V40.9986H64.4106ZM73.7862 32.6841V40.9986H72.5546V32.6841H71.3744V31.5377H74.9664V32.6841H73.7862ZM85.5864 31.5377L84.2266 40.9986H82.8924L82.1355 35.5171L81.3914 40.9986H80.0573L78.6974 31.5377H79.9162L80.7885 38.6268L81.6609 31.5377H82.623L83.4953 38.6268L84.3677 31.5377H85.5864ZM91.0621 40.9986C90.07 40.9986 89.574 40.4628 89.574 39.391V33.1585C89.574 32.078 90.0657 31.5377 91.0493 31.5377H92.2295C93.2131 31.5377 93.7048 32.078 93.7048 33.1585V39.391C93.7048 40.4628 93.2088 40.9986 92.2167 40.9986H91.0621ZM91.3572 39.8522H91.9858C92.3108 39.8522 92.4733 39.6678 92.4733 39.2988V33.2375C92.4733 32.8686 92.2894 32.6841 91.9216 32.6841H91.3443C90.9851 32.6841 90.8055 32.8686 90.8055 33.2375V39.2988C90.8055 39.6678 90.9894 39.8522 91.3572 39.8522ZM98.2697 31.5377H100.681C101.622 31.5377 102.093 32.078 102.093 33.1585V35.4907C102.093 36.3165 101.849 36.8392 101.361 37.0588L102.221 40.9986H101.053L100.245 37.1774H99.5012V40.9986H98.2697V31.5377ZM99.5012 36.0969H100.309C100.677 36.0969 100.861 35.8685 100.861 35.4117V33.3693C100.861 32.9125 100.677 32.6841 100.309 32.6841H99.5012V36.0969ZM107.825 40.9986H106.593V31.5377H107.825V40.9986ZM110.66 40.9986H109.428L107.889 36.3736V36.2945L109.172 31.5377H110.301L109.005 36.2418L110.66 40.9986Z" fill="white"/>
</g>
<defs>
<clipPath id="clip0_47_78">
<rect width="95.66" height="40.9971" fill="white" transform="translate(15 0.00146484)"/>
</clipPath>
</defs>
</svg>
