<svg width="137" height="22" viewBox="0 0 137 22" fill="none" xmlns="http://www.w3.org/2000/svg">
<g clip-path="url(#clip0_47_17)">
<path d="M52.6541 14.282L52.7068 13.7194C52.7244 13.4908 52.742 13.2623 52.742 13.0689C52.742 9.2362 49.631 6.12434 45.7994 6.12434C41.9678 6.12434 38.8568 9.2362 38.8568 13.0689C38.8568 13.2799 38.8744 13.4908 38.8919 13.7194L38.9447 14.282L37.0113 11.469L37.0289 11.4163C37.8198 7.19679 41.5108 4.13768 45.7994 4.13768C48.4886 4.13768 51.0547 5.36836 52.742 7.46051V4.98157H54.7281V11.2404L52.6541 14.282Z" fill="white"/>
<path d="M65.8011 13.2975L65.889 13.2623C66.0296 13.2096 66.1527 13.1568 66.2757 13.1217C66.3987 13.0689 66.5393 13.0162 66.6799 12.9634L66.7678 12.9283C68.3145 12.3657 71.3552 11.3284 71.6892 9.65818L73.1304 11.3284C71.9704 13.192 69.2109 14.1414 67.4357 14.7919L67.3654 14.8094C67.2248 14.8622 67.0842 14.9149 66.9436 14.9677C66.7854 15.0204 66.6096 15.0907 66.4514 15.1435C64.9399 15.6885 62.8835 16.4445 62.8835 17.4994C62.8835 18.8355 64.5884 19.9783 66.5921 19.9783C68.6133 19.9783 70.3006 18.8355 70.3006 17.4994V17.3411H72.2867V17.4994C72.2867 19.9607 69.7382 21.965 66.5921 21.965C63.4459 21.965 60.8974 19.9607 60.8974 17.4994C60.9325 15.0556 63.7447 14.0359 65.8011 13.2975Z" fill="white"/>
<path d="M100.514 13.1391H117.229C117.229 15.5126 116.21 17.8157 114.54 19.4507C112.853 21.0858 110.638 21.9824 108.3 21.9824C103.994 21.9824 100.268 18.9409 99.5123 14.5984L100.514 13.1391ZM101.657 15.0555C102.535 17.9739 105.242 20.0133 108.3 20.0133C111.359 20.0133 114.065 17.9915 114.944 15.0555H101.657Z" fill="white"/>
<path d="M95.1885 13.0161H79.7391L78.6845 11.469C79.37 7.33741 83.1664 4.12007 87.4726 4.12007C89.9157 4.12007 92.2885 5.13977 93.9758 6.93305L94.0812 7.03853L92.64 8.40986L92.5345 8.30437C91.2163 6.89788 89.406 6.12431 87.4902 6.12431C84.4319 6.12431 81.7427 8.14614 80.8463 11.047H96.5595L95.1885 13.0161Z" fill="white"/>
<path d="M114.54 9.99215C113.292 7.51321 110.902 6.14189 108.336 6.12431C106.156 6.10672 104.188 7.09127 102.606 8.5505C101.094 9.95699 99.9868 11.7151 98.8268 13.4029C97.7195 15.0204 96.6825 16.673 95.3643 18.1322C93.9933 19.6442 92.3588 20.91 90.4078 21.5429C88.2635 22.2462 85.8731 22.1407 83.7991 21.2616C80.0027 19.6793 77.8057 15.9346 75.6086 12.6821C74.5013 11.047 73.3589 9.39439 71.8298 8.11097C70.16 6.70448 68.086 5.93091 65.889 6.14189C61.3895 6.56384 58.8937 10.8185 56.6088 14.194C54.4469 17.4114 51.9862 20.787 47.9964 21.7363C45.7994 22.2638 43.4618 21.9825 41.4581 20.9628C39.6829 20.0486 38.2241 18.6245 36.9937 17.0773C35.7634 15.5126 34.7088 13.8248 33.5839 12.1722C32.4591 10.5196 31.2287 8.86696 29.6117 7.68903C27.8365 6.4056 25.6043 5.80785 23.4249 6.28254C21.3685 6.73965 19.5933 8.14614 18.6793 10.0625C18.2223 11.0294 17.9938 12.0843 17.9938 13.1392C19.1714 13.1392 31.7736 13.1392 32.7227 13.1392L33.7421 14.616C33.707 14.8797 33.5839 15.3368 33.5136 15.5654C33.3906 16.0049 33.2148 16.4444 33.0215 16.8664C32.6348 17.6751 32.1251 18.4135 31.5275 19.064C28.9614 21.9649 24.7958 22.756 21.2982 21.2089C18.0641 19.7673 16.0429 16.5499 16.0253 13.0513C16.0077 9.88667 17.7829 6.88029 20.5072 5.29799C23.2843 3.69811 26.7819 3.75086 29.5766 5.28041C32.09 6.65174 33.8476 8.97245 35.4119 11.3107C36.2907 12.6117 37.1519 13.9479 38.0834 15.2137C38.9798 16.4268 39.9992 17.5872 41.2296 18.4838C42.5478 19.4332 44.1121 19.9958 45.7291 19.9958C47.3637 19.9958 48.928 19.4684 50.2638 18.519C51.5117 17.6399 52.5311 16.4796 53.4275 15.2665C54.3942 13.9831 55.2554 12.6117 56.1518 11.2756C57.7336 8.93728 59.5088 6.599 62.0398 5.24525C64.9575 3.68053 68.5606 3.73327 71.4255 5.3859C73.8862 6.80997 75.6086 9.13068 77.1729 11.4514C78.0693 12.77 78.9305 14.1237 79.8797 15.3896C80.7936 16.6027 81.8306 17.763 83.1137 18.6245C84.467 19.5387 86.0313 20.031 87.6659 19.9782C89.2829 19.9255 90.7945 19.3453 92.0951 18.3959C93.3254 17.4817 94.3273 16.3038 95.2413 15.0731C96.1552 13.8424 96.9813 12.5414 97.8425 11.2756C99.4244 8.93728 101.2 6.599 103.731 5.24525C106.754 3.62779 110.533 3.73327 113.362 5.68478C114.645 6.58142 115.647 7.77693 116.35 9.18342C116.016 9.35923 114.733 9.90425 114.54 9.99215ZM19.3999 17.218C20.5775 18.7827 22.3879 19.82 24.3564 19.9782C26.4128 20.154 28.4693 19.3981 29.9105 17.9212C30.7014 17.1125 31.2815 16.128 31.6154 15.0555C30.1214 15.0555 18.8727 15.0555 18.3278 15.0555C18.5387 15.8291 18.9078 16.5675 19.3999 17.218Z" fill="white"/>
<path d="M119.778 17.6047C118.565 17.6047 117.581 18.5893 117.581 19.8024C117.581 21.0155 118.565 22 119.778 22C120.99 22 121.975 21.0155 121.975 19.8024C121.975 18.5893 120.99 17.6047 119.778 17.6047ZM119.778 21.666C118.741 21.666 117.915 20.8221 117.915 19.8024C117.915 18.7827 118.758 17.9388 119.778 17.9388C120.815 17.9388 121.641 18.7827 121.641 19.8024C121.641 20.8221 120.815 21.666 119.778 21.666Z" fill="white"/>
<path d="M119.426 19.5567V18.6251H119.039V20.9628H119.69C119.989 20.9628 120.217 20.91 120.358 20.787C120.498 20.664 120.569 20.5058 120.569 20.2773C120.569 19.9961 120.41 19.7852 120.112 19.6621L120.762 18.6251H120.323L119.76 19.5567H119.426ZM119.426 19.873H119.69C119.866 19.873 119.989 19.9082 120.076 19.9785C120.164 20.0488 120.199 20.1367 120.199 20.2773C120.199 20.4003 120.164 20.5058 120.076 20.5585C119.989 20.6112 119.866 20.6464 119.69 20.6464H119.444V19.873H119.426Z" fill="white"/>
</g>
<defs>
<clipPath id="clip0_47_17">
<rect width="137" height="22" fill="white" transform="matrix(1 0 0 -1 0 22)"/>
</clipPath>
</defs>
</svg>
